<svg width="1400" height="600" viewBox="0 0 1400 600" fill="none" xmlns="http://www.w3.org/2000/svg">
  <rect width="1400" height="600" fill="#102A43"/>
  <rect x="0" y="0" width="1400" height="600" fill="url(#bg)"/>
  <circle cx="1080" cy="280" r="210" fill="#01A49E" fill-opacity="0.24"/>
  <circle cx="1120" cy="265" r="140" fill="#F7C948" fill-opacity="0.22"/>
  <rect x="760" y="145" width="310" height="310" rx="70" fill="#E6FFFA"/>
  <rect x="804" y="188" width="222" height="224" rx="44" fill="#111827"/>
  <rect x="833" y="218" width="164" height="132" rx="24" fill="#1F2937"/>
  <circle cx="915" cy="382" r="12" fill="#01A49E"/>
  <rect x="1010" y="205" width="96" height="220" rx="48" fill="#F9FAFB"/>
  <rect x="1033" y="245" width="50" height="92" rx="25" fill="#01A49E"/>
  <rect x="690" y="388" width="455" height="28" rx="14" fill="#FFFFFF" fill-opacity="0.22"/>
  <path d="M114 440C243 340 376 400 503 284C602 194 704 196 815 243" stroke="#FFFFFF" stroke-opacity="0.12" stroke-width="34" stroke-linecap="round"/>
  <defs>
    <linearGradient id="bg" x1="0" y1="0" x2="1400" y2="600" gradientUnits="userSpaceOnUse">
      <stop stop-color="#061826"/>
      <stop offset="0.5" stop-color="#123B4A"/>
      <stop offset="1" stop-color="#0B1324"/>
    </linearGradient>
  </defs>
</svg>
