<svg width="1400" height="600" viewBox="0 0 1400 600" fill="none" xmlns="http://www.w3.org/2000/svg">
  <rect width="1400" height="600" fill="#141414"/>
  <rect width="1400" height="600" fill="url(#bg)"/>
  <circle cx="1048" cy="300" r="220" fill="#EF4444" fill-opacity="0.18"/>
  <circle cx="930" cy="238" r="128" fill="#01A49E" fill-opacity="0.18"/>
  <rect x="760" y="180" width="385" height="220" rx="36" fill="#F8FAFC"/>
  <rect x="786" y="206" width="333" height="168" rx="24" fill="#111827"/>
  <rect x="825" y="238" width="118" height="90" rx="18" fill="#01A49E"/>
  <rect x="967" y="238" width="118" height="90" rx="18" fill="#F59E0B"/>
  <rect x="860" y="418" width="185" height="28" rx="14" fill="#F8FAFC"/>
  <rect x="903" y="395" width="100" height="48" rx="12" fill="#CBD5E1"/>
  <path d="M110 146C242 214 350 116 472 185C590 252 677 241 758 202" stroke="#FFFFFF" stroke-opacity="0.14" stroke-width="32" stroke-linecap="round"/>
  <path d="M124 486C268 400 425 470 545 354C627 276 704 276 790 312" stroke="#FFFFFF" stroke-opacity="0.1" stroke-width="26" stroke-linecap="round"/>
  <defs>
    <linearGradient id="bg" x1="0" y1="0" x2="1400" y2="600" gradientUnits="userSpaceOnUse">
      <stop stop-color="#1B1B1B"/>
      <stop offset="0.45" stop-color="#3A2433"/>
      <stop offset="1" stop-color="#111827"/>
    </linearGradient>
  </defs>
</svg>
